<svg height="82" viewBox="0 0 83 82" width="83" xmlns="http://www.w3.org/2000/svg"><g fill="none" fill-rule="evenodd" stroke="#24ccfd"><path d="m1.928 53.286 37.278-23.476a4 4 0 0 1 4.263 0l37.288 23.49a2 2 0 0 1 0 3.384l-37.28 23.476a4 4 0 0 1 -4.263 0l-37.287-23.49a2 2 0 0 1 0-3.385z"/><path d="m1.928 43.903 37.278-23.475a4 4 0 0 1 4.263 0l37.288 23.489a2 2 0 0 1 0 3.384l-37.28 23.475a4 4 0 0 1 -4.263 0l-37.287-23.488a2 2 0 0 1 0-3.385z"/><path d="m1.928 34.37 37.278-23.474a4 4 0 0 1 4.263 0l37.288 23.488a2 2 0 0 1 0 3.385l-37.28 23.474a4 4 0 0 1 -4.263 0l-37.287-23.488a2 2 0 0 1 0-3.385z"/><path d="m1.928 24.838 37.278-23.475a4 4 0 0 1 4.263 0l37.288 23.489a2 2 0 0 1 0 3.384l-37.28 23.475a4 4 0 0 1 -4.263 0l-37.287-23.488a2 2 0 0 1 0-3.385z"/></g></svg>