<svg height="64" viewBox="0 0 82 64" width="82" xmlns="http://www.w3.org/2000/svg"><g fill="none" fill-rule="evenodd"><rect height="63" rx="4" stroke="#24ccfd" width="81" x=".5" y=".5"/><path d="m.5 9.5v-5.5a3.5 3.5 0 0 1 3.5-3.5h74a3.5 3.5 0 0 1 3.5 3.5v5.5z" stroke="#24ccfd"/><g fill="#24ccfd"><path d="m7 16h24v1h-24z"/><path d="m15 19h24v1h-24z" opacity=".8"/><path d="m15 22h10v1h-10zm12 0h20v1h-20z" opacity=".6"/><path d="m15 25h20v1h-20z" opacity=".4"/><path d="m7 32h20v1h-20z"/><path d="m23 41h20v1h-20z" opacity=".4"/><path d="m15 35h10v1h-10z" opacity=".8"/><path d="m7 48h10v1h-10zm12 0h20v1h-20z"/><path d="m15 38h30v1h-30z" opacity=".6"/><path d="m15 51h30v1h-30zm32 0h10v1h-10z" opacity=".8"/></g><circle cx="76" cy="5" opacity=".5" r="2" stroke="#24ccfd"/><circle cx="68" cy="5" opacity=".5" r="2" stroke="#24ccfd"/><circle cx="60" cy="5" opacity=".5" r="2" stroke="#24ccfd"/></g></svg>