<svg height="86" viewBox="0 0 68 86" width="68" xmlns="http://www.w3.org/2000/svg"><g fill="none" fill-rule="evenodd" stroke="#24ccfd"><path d="m50.271 29.66c0 8.899-7.212 16.113-16.113 16.113-8.9 0-16.112-7.214-16.112-16.113 0-8.9 7.213-16.114 16.112-16.114 8.9 0 16.113 7.214 16.113 16.114z" opacity=".7"/><path d="m44.579 29.66c0 5.755-4.666 10.42-10.42 10.42-5.756 0-10.42-4.665-10.42-10.42 0-5.756 4.664-10.42 10.42-10.42 5.754 0 10.42 4.664 10.42 10.42zm11.666 18.671c-4.69 5.543-11.417 9.302-19.033 10.1l9.739 26.758 6.068-14.526 13.986 7.226zm-44.173 0-10.76 29.559 13.986-7.226 6.068 14.526 9.739-26.758c-7.616-.798-14.344-4.557-19.033-10.1z" opacity=".4"/><path d="m34.159.723c-15.982 0-28.937 12.955-28.937 28.937 0 7.12 2.583 13.631 6.85 18.67 4.69 5.543 11.416 9.302 19.034 10.102 1.004.104 2.021.164 3.053.164 1.031 0 2.048-.06 3.052-.164 7.618-.8 14.344-4.559 19.035-10.101 4.266-5.04 6.849-11.55 6.849-18.671 0-15.982-12.955-28.937-28.936-28.937z"/></g></svg>